<svg width="16" height="16" viewBox="0 0 16 16" fill="none" xmlns="http://www.w3.org/2000/svg">
  <path fill-rule="evenodd" clip-rule="evenodd" d="M12.4714 3.5286C12.7318 3.78894 12.7318 4.21105 12.4714 4.4714L4.47145 12.4714C4.2111 12.7318 3.78899 12.7318 3.52864 12.4714C3.26829 12.2111 3.26829 11.7889 3.52864 11.5286L11.5286 3.5286C11.789 3.26825 12.2111 3.26825 12.4714 3.5286Z" fill="#FF377F"/>
  <path fill-rule="evenodd" clip-rule="evenodd" d="M3.52864 3.5286C3.78899 3.26825 4.2111 3.26825 4.47145 3.5286L12.4714 11.5286C12.7318 11.7889 12.7318 12.2111 12.4714 12.4714C12.2111 12.7318 11.789 12.7318 11.5286 12.4714L3.52864 4.4714C3.26829 4.21105 3.26829 3.78894 3.52864 3.5286Z" fill="#FF377F"/>
</svg>
